<?xml version="1.0" encoding="UTF-8" standalone="no"?>
<!-- Created with Inkscape (http://www.inkscape.org/) -->

<svg
   xmlns:dc="http://purl.org/dc/elements/1.1/"
   xmlns:cc="http://creativecommons.org/ns#"
   xmlns:rdf="http://www.w3.org/1999/02/22-rdf-syntax-ns#"
   xmlns:svg="http://www.w3.org/2000/svg"
   xmlns="http://www.w3.org/2000/svg"
   xmlns:sodipodi="http://sodipodi.sourceforge.net/DTD/sodipodi-0.dtd"
   xmlns:inkscape="http://www.inkscape.org/namespaces/inkscape"
   width="151.93445mm"
   height="121.64617mm"
   viewBox="0 0 151.93445 121.64617"
   version="1.1"
   id="svg51"
   sodipodi:docname="drawing.svg"
   inkscape:version="0.92.1 r15371">
  <defs
     id="defs45" />
  <sodipodi:namedview
     id="base"
     pagecolor="#ffffff"
     bordercolor="#666666"
     borderopacity="1.0"
     inkscape:pageopacity="0.0"
     inkscape:pageshadow="2"
     inkscape:zoom="1.4"
     inkscape:cx="256.69526"
     inkscape:cy="140.98155"
     inkscape:document-units="mm"
     inkscape:current-layer="layer1"
     showgrid="false"
     inkscape:window-width="1920"
     inkscape:window-height="1057"
     inkscape:window-x="-8"
     inkscape:window-y="-8"
     inkscape:window-maximized="1"
     fit-margin-top="0"
     fit-margin-left="0"
     fit-margin-right="0"
     fit-margin-bottom="0" />
  <metadata
     id="metadata48">
    <rdf:RDF>
      <cc:Work
         rdf:about="">
        <dc:format>image/svg+xml</dc:format>
        <dc:type
           rdf:resource="http://purl.org/dc/dcmitype/StillImage" />
        <dc:title />
      </cc:Work>
    </rdf:RDF>
  </metadata>
  <g
     inkscape:label="Layer 1"
     inkscape:groupmode="layer"
     id="layer1"
     transform="translate(251.72615,14.043323)">
    <path
       style="opacity:1;fill:#000000;fill-opacity:1;stroke:none;stroke-width:2;stroke-linecap:square;stroke-linejoin:bevel;stroke-miterlimit:4;stroke-dasharray:none;stroke-opacity:1;paint-order:stroke markers fill"
       id="path4521"
       d="m -207.8072,85.071177 c -0.72587,-0.287517 -1.50089,-0.420857 -2.25614,-0.608052 -1.22111,-0.286192 -2.46544,-0.439989 -3.71467,-0.529225 -0.93987,-0.06229 -1.88841,-0.09368 -2.79155,0.205023 -0.6661,0.241676 -1.05916,0.82972 -1.44838,1.389497 -0.32921,0.525242 -0.65235,1.063492 -0.82124,1.663469 -0.12131,0.561343 -0.10108,1.143135 -0.10526,1.714384 0.0239,0.376108 -0.0307,0.759169 10e-4,1.134803 0.0341,0.3986 0.17259,0.774967 0.30972,1.146215 0.49365,1.0283 1.48987,1.616519 2.4829,2.090502 1.94439,0.678688 4.02401,0.785442 6.06229,0.91241 1.29098,0.03612 2.61921,0.103921 3.85909,-0.3298 0.16986,-0.05942 0.33102,-0.141259 0.49653,-0.211889 0.65754,-0.355889 0.96093,-0.962999 1.10862,-1.665962 0.0922,-0.538877 -0.0832,-1.086726 -0.26308,-1.592221 -0.21349,-0.469254 -0.36883,-0.960204 -0.55979,-1.43805 -0.20068,-0.307117 -0.30974,-0.662313 -0.45172,-0.997759 -0.17941,-0.489302 -0.39015,-0.959252 -0.67828,-1.394537 -0.17815,-0.233452 -0.0853,-0.108836 -0.27762,-0.374626 -0.70474,-0.974609 0.67357,-1.97126 1.3783,-0.996651 v 0 c 0.19884,0.275251 0.0898,0.125621 0.32802,0.448318 0.33444,0.525743 0.61046,1.078984 0.82079,1.666076 0.14157,0.346141 0.26433,0.696428 0.45996,1.018 0.20068,0.502184 0.36624,1.017011 0.58719,1.511498 0.27777,0.81443 0.49505,1.669807 0.31375,2.531613 -0.32045,1.321633 -0.8793,2.199211 -2.11645,2.856222 -0.23005,0.09286 -0.45486,0.199948 -0.69016,0.27858 -1.42591,0.47652 -2.93888,0.443246 -4.42119,0.388771 -2.25863,-0.141478 -4.56457,-0.270793 -6.70166,-1.081138 -1.4614,-0.724128 -2.64748,-1.505929 -3.33881,-3.045947 -0.16655,-0.475739 -0.24042,-0.626406 -0.33121,-1.119161 -0.1069,-0.580244 -0.0807,-1.16142 -0.0795,-1.747922 0.006,-0.729477 -0.0104,-1.470835 0.17455,-2.182413 0.23432,-0.77388 0.61583,-1.485344 1.06036,-2.159595 0.6145,-0.869855 1.28617,-1.693537 2.33691,-2.037223 0.18076,-0.05376 0.35871,-0.118097 0.54228,-0.161295 0.94123,-0.221481 1.91916,-0.160462 2.87512,-0.115708 1.34623,0.09732 2.6872,0.264448 4.00272,0.575 0.84383,0.21004 1.70935,0.360583 2.51616,0.695426 1.10547,0.473771 0.43545,2.037138 -0.67001,1.563367 z"
       inkscape:connector-curvature="0" />
    <path
       style="opacity:1;fill:#000000;fill-opacity:1;stroke:none;stroke-width:2;stroke-linecap:square;stroke-linejoin:bevel;stroke-miterlimit:4;stroke-dasharray:none;stroke-opacity:1;paint-order:stroke markers fill"
       id="path4523"
       d="m -179.90254,85.207758 c -1.04392,-0.09564 -2.09088,-0.130315 -3.13847,-0.154975 -1.16055,0.03858 -2.33973,0.08825 -3.43685,0.499714 -0.4865,0.190037 -0.68151,0.636809 -0.91584,1.069998 -0.36346,0.644581 -0.71995,1.290207 -0.93821,1.9997 -0.15842,0.590489 -0.17387,1.195663 -0.13053,1.800752 0.16025,0.636725 0.59172,1.120706 1.09464,1.516594 1.46442,0.923853 2.99844,1.722088 4.5737,2.437323 0.62973,0.259951 1.25594,0.556747 1.92199,0.717039 0.68003,0.163656 1.3868,0.206174 2.08116,0.261173 0.88947,0.02916 1.83001,-0.03676 2.66959,-0.36382 0.38094,-0.148397 0.55401,-0.298895 0.88175,-0.529482 0.47509,-0.468916 0.90814,-1.064186 0.88447,-1.76625 -0.004,-0.120597 -0.0378,-0.238355 -0.0566,-0.357531 -0.45765,-1.289839 -1.77879,-1.908543 -2.92227,-2.486218 -1.01223,-0.474276 -0.52211,-0.242425 -1.47064,-0.69492 -1.08551,-0.517875 -0.35312,-2.053014 0.73238,-1.535139 v 0 c 0.95511,0.455691 0.4519,0.217273 1.51006,0.714353 1.40301,0.719297 2.9388,1.533872 3.60426,3.060354 0.10805,0.247872 0.1593,0.51681 0.23895,0.775213 0.017,0.246401 0.0599,0.492366 0.0511,0.739198 -0.0423,1.195282 -0.75052,2.199394 -1.6182,2.959457 -0.2085,0.137496 -0.40695,0.291592 -0.6255,0.412488 -1.21437,0.671791 -2.65275,0.817248 -4.01556,0.767723 -0.82183,-0.06689 -1.64318,-0.131749 -2.44656,-0.331364 -0.73482,-0.182581 -1.42866,-0.503684 -2.12413,-0.793811 -1.70742,-0.776766 -3.3767,-1.639197 -4.94705,-2.669418 -0.91019,-0.762913 -1.49855,-1.516486 -1.71438,-2.716019 -0.0546,-0.818129 -0.0203,-1.636586 0.20572,-2.43069 0.26127,-0.81017 0.63943,-1.56441 1.06612,-2.300147 0.44966,-0.821381 0.90982,-1.5098 1.83055,-1.855846 1.30457,-0.460907 2.67767,-0.58383 4.05605,-0.600842 1.03392,0.02447 2.06859,0.05127 3.09833,0.1545 1.20272,0 1.20272,1.700893 0,1.700893 z"
       inkscape:connector-curvature="0" />
    <path
       style="opacity:1;fill:#000000;fill-opacity:1;stroke:none;stroke-width:2;stroke-linecap:square;stroke-linejoin:bevel;stroke-miterlimit:4;stroke-dasharray:none;stroke-opacity:1;paint-order:stroke markers fill"
       id="path4525"
       d="m -230.15762,73.027164 c -0.10298,0.511654 -0.25197,1.029412 -0.2423,1.55502 0.11731,0.581869 0.43318,1.12222 0.75516,1.615276 0.2665,0.341656 0.57247,0.639048 0.99827,0.748654 0.81891,0.155012 1.66068,0.135573 2.49087,0.142484 1.45088,-0.0047 2.90232,0.01931 4.35264,-0.0263 1.25646,-0.02252 2.50551,-0.157051 3.75675,-0.259662 1.0492,-0.07723 2.10155,-0.0897 3.15309,-0.09811 1.51109,-0.0055 3.02219,-0.0035 4.53328,-0.0027 0.96973,5.29e-4 1.93947,0.0011 2.9092,0.0013 1.04022,1.59e-4 2.08044,1.25e-4 3.12065,1.25e-4 1.03329,-3e-6 2.06658,-8e-6 3.09987,-1.3e-5 1.18725,-3e-6 2.3745,-3e-6 3.56175,-3e-6 1.14584,0 2.29168,0 3.43753,0 0.7547,0 1.5094,0 2.2641,0 0.67568,0 1.35135,0 2.02702,0 0.56976,0.0056 1.13979,-0.01881 1.70808,0.02596 0.62227,0.06816 1.23464,0.195222 1.85736,0.260418 0.78452,0.06141 1.57397,0.106913 2.3606,0.06859 0.63678,-0.0461 1.27205,-0.109337 1.90973,-0.142174 0.61756,-0.02527 1.23585,-0.02389 1.85381,-0.02495 0.53171,-5.3e-4 1.06343,2.64e-4 1.59515,7.93e-4 0.43866,-0.02987 0.86779,0.05938 1.29877,0.123648 0.0553,0.0067 0.11022,0.01786 0.16586,0.02008 0.0211,7.94e-4 0.0443,-1.19e-4 0.0625,-0.0109 0.0286,-0.01691 -0.0877,0.02492 -0.0993,-0.0062 -0.01,-0.0263 0.0629,-0.02196 0.0681,-0.04955 0.004,-0.02291 -0.0427,0.01868 -0.064,0.02801 0.10726,-0.242991 0.15577,-0.558004 0.19307,-0.839981 0.1333,-0.660715 0.28165,-1.320099 0.44601,-1.97426 0.20461,-0.751514 0.31119,-1.524624 0.4855,-2.282573 0.0248,-0.09791 0.0497,-0.195821 0.0745,-0.29373 0.29633,-1.165638 1.94479,-0.74657 1.64846,0.419068 v 0 c -0.0222,0.08715 -0.0444,0.17431 -0.0666,0.261467 -0.18248,0.765886 -0.27838,1.552016 -0.49249,2.311349 -0.14995,0.593257 -0.28153,1.191824 -0.41019,1.789523 -0.0853,0.607327 -0.21402,1.204145 -0.58196,1.71037 -0.52535,0.528153 -0.91469,0.711885 -1.6814,0.599368 -0.34915,-0.05254 -0.69233,-0.134397 -1.04803,-0.104862 -0.53031,-5.29e-4 -1.06062,-0.0011 -1.59093,-7.94e-4 -0.59002,0.0011 -1.18036,-5.29e-4 -1.77002,0.02273 -0.64145,0.03238 -1.28019,0.09964 -1.92093,0.142708 -0.87242,0.0358 -1.74691,-0.0016 -2.61666,-0.07652 -0.61265,-0.06649 -1.21628,-0.182125 -1.82748,-0.257497 -0.51592,-0.05559 -1.03947,0.0019 -1.55736,-0.01926 -0.67567,0 -1.35134,0 -2.02702,0 -0.7547,0 -1.5094,0 -2.2641,0 -1.14585,0 -2.29169,0 -3.43753,0 -1.18725,0 -2.37449,0 -3.56174,3e-6 -1.03329,2e-6 -2.06658,8e-6 -3.09987,10e-6 -1.04035,3e-6 -2.0807,3.5e-5 -3.12104,-1.24e-4 -0.96992,-2.17e-4 -1.93984,-7.94e-4 -2.90976,-0.0013 -1.50626,-7.94e-4 -3.01252,-0.0028 -4.51877,0.0026 -1.00971,0.008 -2.02021,0.01929 -3.02773,0.09248 -1.27995,0.104831 -2.55776,0.241446 -3.84304,0.264531 -1.47268,0.04494 -2.94635,0.02365 -4.41959,0.02705 -1.00307,-0.0085 -2.02359,0.01471 -3.00427,-0.226357 -0.14551,-0.05156 -0.29548,-0.09195 -0.43653,-0.154694 -0.60375,-0.268562 -1.0699,-0.778697 -1.46481,-1.291193 -0.49375,-0.777007 -0.95965,-1.61935 -1.02515,-2.55538 0.0176,-0.659024 0.13727,-1.306986 0.29296,-1.947169 0.2917,-1.166802 1.94181,-0.754277 1.65011,0.412528 z"
       inkscape:connector-curvature="0" />
  </g>
</svg>
